<?xml version="1.0" standalone="no"?>
<!DOCTYPE svg PUBLIC "-//W3C//DTD SVG 20010904//EN"
 "http://www.w3.org/TR/2001/REC-SVG-20010904/DTD/svg10.dtd">
<svg version="1.0" xmlns="http://www.w3.org/2000/svg"
 width="548.000000pt" height="249.000000pt" viewBox="0 0 548.000000 249.000000"
 preserveAspectRatio="xMidYMid meet">

<g transform="translate(0.000000,249.000000) scale(0.100000,-0.100000)"
fill="#000000" stroke="none">
<path d="M3067 2284 c-31 -17 -28 -28 15 -50 37 -19 42 -15 34 31 -8 39 -10
40 -49 19z"/>
<path d="M2912 2197 c-36 -21 -34 -30 17 -60 l31 -18 -1 28 c-1 15 -4 37 -7
49 -7 20 -7 20 -40 1z"/>
<path d="M2997 2082 c-123 -83 -186 -132 -184 -142 2 -8 8 -14 15 -13 6 2 86
48 176 103 90 55 168 100 173 100 12 -1 149 -128 143 -133 -3 -2 -104 -41
-225 -87 -121 -46 -221 -84 -223 -85 -1 -1 0 -9 3 -18 5 -12 51 0 277 75 l270
90 -43 47 c-98 104 -184 191 -189 191 -3 -1 -89 -58 -193 -128z"/>
<path d="M2757 2098 l-28 -21 41 -24 c23 -14 44 -22 47 -19 8 7 -15 86 -25 86
-4 0 -20 -10 -35 -22z"/>
<path d="M2221 1669 l-505 -241 -25 30 c-105 122 -128 145 -174 170 -45 23
-64 27 -137 27 -76 0 -91 -3 -139 -30 -33 -18 -69 -50 -96 -85 -23 -30 -64
-75 -90 -99 l-47 -44 -127 7 c-69 3 -168 9 -219 12 -302 20 -453 -173 -403
-516 21 -138 26 -126 26 58 0 159 2 182 21 223 31 66 78 114 142 146 53 26 65
28 182 28 69 0 179 -4 245 -9 151 -11 156 -9 287 125 110 113 145 132 234 131
73 -1 126 -24 182 -80 43 -43 97 -111 91 -116 -2 -1 -67 -35 -144 -76 -77 -40
-142 -74 -144 -76 -3 -3 0 -9 6 -15 7 -7 219 91 684 315 602 291 726 357 667
356 -7 0 -240 -109 -517 -241z"/>
<path d="M3317 1843 c-4 -20 -4 -39 -1 -42 2 -3 25 5 51 18 l47 23 -43 19
c-24 10 -44 19 -46 19 -1 0 -5 -17 -8 -37z"/>
<path d="M3140 1798 c0 -13 -3 -34 -7 -47 -7 -26 1 -25 76 6 l35 15 -39 24
c-50 30 -65 30 -65 2z"/>
<path d="M2113 1453 c-617 -304 -681 -338 -672 -354 9 -17 21 -13 161 57 116
58 153 73 159 62 15 -23 22 -97 17 -178 -4 -64 -10 -87 -31 -119 -56 -84 -197
-151 -318 -151 -62 0 -71 -3 -104 -32 -20 -17 -48 -54 -62 -82 -135 -268 -330
-411 -513 -376 -144 27 -262 130 -371 322 -28 50 -30 51 -23 18 29 -151 146
-310 272 -368 81 -37 204 -43 299 -14 166 51 309 192 401 393 34 77 47 84 172
92 111 8 183 39 256 112 43 42 66 75 77 109 23 66 21 167 -3 236 -11 30 -19
58 -20 62 0 5 226 121 503 259 276 138 503 252 505 254 5 4 -10 35 -17 34 -3
0 -313 -151 -688 -336z"/>
<path d="M2950 1716 c0 -31 4 -56 10 -56 8 0 77 29 89 37 5 4 -20 23 -71 56
l-28 19 0 -56z"/>
<path d="M2784 1481 c-27 -12 -73 -66 -79 -94 -2 -12 -6 -40 -7 -62 -3 -34 -7
-41 -28 -43 -14 -2 -31 -9 -37 -14 -31 -25 -2 -78 43 -78 l24 0 0 -324 c0
-282 2 -327 16 -340 18 -19 38 -20 65 -6 18 10 19 25 19 340 l0 330 33 0 c47
0 69 19 65 55 -3 27 -7 30 -48 35 -45 5 -45 5 -44 42 1 45 16 64 61 83 30 13
34 18 31 47 -3 32 -5 33 -48 35 -25 1 -54 -2 -66 -6z"/>
<path d="M4196 1468 c-14 -20 -16 -80 -16 -460 0 -256 4 -447 10 -462 12 -34
54 -44 80 -21 19 17 20 34 20 472 0 294 -4 461 -10 474 -15 27 -64 25 -84 -3z"/>
<path d="M4866 1474 c-14 -14 -16 -70 -16 -473 0 -447 0 -458 20 -476 29 -26
72 -10 84 30 l9 30 37 -37 c33 -34 43 -38 86 -38 62 0 110 28 132 78 14 30 17
80 20 279 4 285 -3 340 -53 390 -29 29 -39 33 -89 33 -50 0 -60 -4 -96 -36
l-40 -36 0 114 c0 87 -4 119 -16 136 -18 26 -56 29 -78 6z m218 -285 c43 -20
47 -48 44 -303 l-3 -238 -29 -25 c-34 -29 -76 -26 -113 9 -23 21 -23 24 -23
268 0 243 0 247 23 267 37 34 62 39 101 22z"/>
<path d="M2467 1452 c-37 -41 -9 -102 46 -102 32 0 67 32 67 60 0 50 -79 79
-113 42z"/>
<path d="M2107 1268 c-25 -15 -46 -39 -62 -72 -25 -49 -25 -54 -25 -295 0
-274 6 -300 69 -354 41 -34 67 -41 137 -35 94 8 143 60 151 161 7 85 -1 115
-33 123 -40 10 -64 -19 -64 -78 0 -78 -22 -108 -77 -108 -74 0 -88 57 -82 348
4 191 12 222 59 237 58 19 100 -28 100 -112 0 -60 10 -75 46 -75 44 0 56 26
51 110 -5 81 -20 111 -77 150 -45 31 -139 31 -193 0z"/>
<path d="M2476 1274 c-14 -13 -16 -61 -16 -373 0 -334 1 -359 18 -374 25 -22
48 -21 72 3 19 19 20 33 20 368 0 298 -2 351 -16 370 -18 26 -56 29 -78 6z"/>
<path d="M3325 1257 c-18 -18 -38 -51 -44 -72 -7 -24 -11 -138 -11 -285 0
-147 4 -261 11 -285 6 -21 26 -54 44 -72 28 -28 40 -33 79 -33 55 0 96 19 125
57 l20 28 1 -26 c0 -39 34 -65 68 -53 l27 9 3 372 c2 369 2 372 -19 383 -33
18 -69 4 -76 -30 -3 -17 -7 -30 -8 -30 -2 0 -19 16 -38 35 -32 32 -40 35 -92
35 -51 0 -60 -3 -90 -33z m175 -72 c16 -8 34 -24 40 -34 6 -12 10 -113 10
-256 l0 -236 -24 -24 c-47 -47 -116 -42 -136 11 -6 14 -10 133 -10 265 l0 240
25 24 c28 29 54 31 95 10z"/>
<path d="M3844 1276 c-42 -19 -80 -70 -94 -127 -8 -31 -11 -124 -8 -275 3
-214 5 -232 25 -271 34 -62 75 -87 153 -91 121 -5 181 56 184 188 1 84 -16
110 -61 94 -25 -9 -29 -16 -36 -74 -11 -87 -27 -110 -76 -110 -26 0 -44 7 -57
21 -18 20 -19 39 -19 271 l0 250 28 24 c36 31 62 30 92 -1 20 -19 25 -34 25
-78 0 -76 35 -111 79 -81 18 13 21 25 21 86 0 127 -46 181 -160 185 -40 2 -77
-2 -96 -11z"/>
<path d="M4396 1271 c-15 -17 -17 -47 -14 -322 3 -340 6 -354 75 -406 41 -31
129 -42 186 -24 45 15 93 68 106 118 7 23 11 157 11 329 0 269 -1 292 -18 307
-26 23 -58 21 -76 -5 -14 -19 -16 -66 -16 -310 0 -304 -3 -327 -47 -347 -37
-17 -52 -14 -84 18 l-29 29 0 300 c0 277 -1 300 -18 315 -24 22 -55 21 -76 -2z"/>
<path d="M2992 1268 c-17 -17 -17 -719 0 -736 15 -15 51 -15 66 0 9 9 12 87
12 290 l0 277 31 36 c20 22 40 35 56 35 37 0 63 18 63 45 0 58 -65 74 -102 25
-26 -36 -48 -39 -48 -7 0 29 -18 47 -45 47 -12 0 -26 -5 -33 -12z"/>
<path d="M1145 1235 c-5 -2 -22 -6 -37 -9 -37 -8 -98 -63 -114 -103 -24 -57
-18 -133 15 -185 99 -156 331 -83 331 105 0 57 -14 94 -48 130 -40 42 -112 72
-147 62z m99 -64 c66 -44 86 -131 45 -198 -52 -83 -173 -86 -234 -5 -15 20
-20 43 -20 84 0 49 4 61 30 88 17 18 39 36 50 40 36 15 99 11 129 -9z"/>
</g>
</svg>
